<svg width="118" height="22" viewBox="0 0 118 22" fill="none" xmlns="http://www.w3.org/2000/svg">
<path d="M5.31 10.81C5.80333 10.81 6.23333 10.75 6.6 10.63C6.96667 10.5033 7.27 10.3267 7.51 10.1C7.75667 9.86667 7.94 9.58667 8.06 9.26C8.18 8.92667 8.24 8.55667 8.24 8.15C8.24 7.76333 8.18 7.41333 8.06 7.1C7.94 6.78667 7.76 6.52 7.52 6.3C7.28 6.08 6.97667 5.91333 6.61 5.8C6.24333 5.68 5.81 5.62 5.31 5.62H3.3V10.81H5.31ZM5.31 3.54C6.27667 3.54 7.11333 3.65333 7.82 3.88C8.52667 4.10667 9.11 4.42333 9.57 4.83C10.03 5.23667 10.37 5.72333 10.59 6.29C10.8167 6.85667 10.93 7.47667 10.93 8.15C10.93 8.85 10.8133 9.49333 10.58 10.08C10.3467 10.66 9.99667 11.16 9.53 11.58C9.06333 12 8.47667 12.3267 7.77 12.56C7.07 12.7933 6.25 12.91 5.31 12.91H3.3V18H0.61V3.54H5.31ZM17.3628 10.42C17.8695 10.42 18.3095 10.3567 18.6828 10.23C19.0628 10.1033 19.3728 9.93 19.6128 9.71C19.8595 9.48333 20.0428 9.21667 20.1628 8.91C20.2828 8.60333 20.3428 8.26667 20.3428 7.9C20.3428 7.16667 20.0995 6.60333 19.6128 6.21C19.1328 5.81667 18.3961 5.62 17.4028 5.62H15.6828V10.42H17.3628ZM24.2828 18H21.8528C21.3928 18 21.0595 17.82 20.8528 17.46L17.8128 12.83C17.6995 12.6567 17.5728 12.5333 17.4328 12.46C17.2995 12.3867 17.0995 12.35 16.8328 12.35H15.6828V18H12.9928V3.54H17.4028C18.3828 3.54 19.2228 3.64333 19.9228 3.85C20.6295 4.05 21.2061 4.33333 21.6528 4.7C22.1061 5.06667 22.4395 5.50667 22.6528 6.02C22.8661 6.52667 22.9728 7.08667 22.9728 7.7C22.9728 8.18667 22.8995 8.64667 22.7528 9.08C22.6128 9.51333 22.4061 9.90667 22.1328 10.26C21.8661 10.6133 21.5328 10.9233 21.1328 11.19C20.7395 11.4567 20.2895 11.6667 19.7828 11.82C19.9561 11.92 20.1161 12.04 20.2628 12.18C20.4095 12.3133 20.5428 12.4733 20.6628 12.66L24.2828 18ZM39.4391 10.77C39.4391 11.83 39.2624 12.8133 38.9091 13.72C38.5624 14.62 38.0691 15.4 37.4291 16.06C36.7891 16.72 36.0191 17.2367 35.1191 17.61C34.2191 17.9767 33.2191 18.16 32.1191 18.16C31.0257 18.16 30.0291 17.9767 29.1291 17.61C28.2291 17.2367 27.4557 16.72 26.8091 16.06C26.1691 15.4 25.6724 14.62 25.3191 13.72C24.9657 12.8133 24.7891 11.83 24.7891 10.77C24.7891 9.71 24.9657 8.73 25.3191 7.83C25.6724 6.92333 26.1691 6.14 26.8091 5.48C27.4557 4.82 28.2291 4.30667 29.1291 3.94C30.0291 3.56667 31.0257 3.38 32.1191 3.38C32.8524 3.38 33.5424 3.46667 34.1891 3.64C34.8357 3.80667 35.4291 4.04667 35.9691 4.36C36.5091 4.66667 36.9924 5.04333 37.4191 5.49C37.8524 5.93 38.2191 6.42333 38.5191 6.97C38.8191 7.51667 39.0457 8.11 39.1991 8.75C39.3591 9.39 39.4391 10.0633 39.4391 10.77ZM36.6891 10.77C36.6891 9.97667 36.5824 9.26667 36.3691 8.64C36.1557 8.00667 35.8524 7.47 35.4591 7.03C35.0657 6.59 34.5857 6.25333 34.0191 6.02C33.4591 5.78667 32.8257 5.67 32.1191 5.67C31.4124 5.67 30.7757 5.78667 30.2091 6.02C29.6491 6.25333 29.1691 6.59 28.7691 7.03C28.3757 7.47 28.0724 8.00667 27.8591 8.64C27.6457 9.26667 27.5391 9.97667 27.5391 10.77C27.5391 11.5633 27.6457 12.2767 27.8591 12.91C28.0724 13.5367 28.3757 14.07 28.7691 14.51C29.1691 14.9433 29.6491 15.2767 30.2091 15.51C30.7757 15.7433 31.4124 15.86 32.1191 15.86C32.8257 15.86 33.4591 15.7433 34.0191 15.51C34.5857 15.2767 35.0657 14.9433 35.4591 14.51C35.8524 14.07 36.1557 13.5367 36.3691 12.91C36.5824 12.2767 36.6891 11.5633 36.6891 10.77ZM57.4814 3.54V18H55.1114V8.66C55.1114 8.28667 55.1314 7.88333 55.1714 7.45L50.8014 15.66C50.5947 16.0533 50.2781 16.25 49.8514 16.25H49.4714C49.0447 16.25 48.7281 16.0533 48.5214 15.66L44.1014 7.42C44.1214 7.64 44.1381 7.85667 44.1514 8.07C44.1647 8.28333 44.1714 8.48 44.1714 8.66V18H41.8014V3.54H43.8314C43.9514 3.54 44.0547 3.54333 44.1414 3.55C44.2281 3.55667 44.3047 3.57333 44.3714 3.6C44.4447 3.62667 44.5081 3.67 44.5614 3.73C44.6214 3.79 44.6781 3.87 44.7314 3.97L49.0614 12C49.1747 12.2133 49.2781 12.4333 49.3714 12.66C49.4714 12.8867 49.5681 13.12 49.6614 13.36C49.7547 13.1133 49.8514 12.8767 49.9514 12.65C50.0514 12.4167 50.1581 12.1933 50.2714 11.98L54.5414 3.97C54.5947 3.87 54.6514 3.79 54.7114 3.73C54.7714 3.67 54.8347 3.62667 54.9014 3.6C54.9747 3.57333 55.0547 3.55667 55.1414 3.55C55.2281 3.54333 55.3314 3.54 55.4514 3.54H57.4814ZM74.4977 10.77C74.4977 11.83 74.321 12.8133 73.9677 13.72C73.621 14.62 73.1277 15.4 72.4877 16.06C71.8477 16.72 71.0777 17.2367 70.1777 17.61C69.2777 17.9767 68.2777 18.16 67.1777 18.16C66.0843 18.16 65.0877 17.9767 64.1877 17.61C63.2877 17.2367 62.5143 16.72 61.8677 16.06C61.2277 15.4 60.731 14.62 60.3777 13.72C60.0243 12.8133 59.8477 11.83 59.8477 10.77C59.8477 9.71 60.0243 8.73 60.3777 7.83C60.731 6.92333 61.2277 6.14 61.8677 5.48C62.5143 4.82 63.2877 4.30667 64.1877 3.94C65.0877 3.56667 66.0843 3.38 67.1777 3.38C67.911 3.38 68.601 3.46667 69.2477 3.64C69.8943 3.80667 70.4877 4.04667 71.0277 4.36C71.5677 4.66667 72.051 5.04333 72.4777 5.49C72.911 5.93 73.2777 6.42333 73.5777 6.97C73.8777 7.51667 74.1043 8.11 74.2577 8.75C74.4177 9.39 74.4977 10.0633 74.4977 10.77ZM71.7477 10.77C71.7477 9.97667 71.641 9.26667 71.4277 8.64C71.2143 8.00667 70.911 7.47 70.5177 7.03C70.1243 6.59 69.6443 6.25333 69.0777 6.02C68.5177 5.78667 67.8843 5.67 67.1777 5.67C66.471 5.67 65.8343 5.78667 65.2677 6.02C64.7077 6.25333 64.2277 6.59 63.8277 7.03C63.4343 7.47 63.131 8.00667 62.9177 8.64C62.7043 9.26667 62.5977 9.97667 62.5977 10.77C62.5977 11.5633 62.7043 12.2767 62.9177 12.91C63.131 13.5367 63.4343 14.07 63.8277 14.51C64.2277 14.9433 64.7077 15.2767 65.2677 15.51C65.8343 15.7433 66.471 15.86 67.1777 15.86C67.8843 15.86 68.5177 15.7433 69.0777 15.51C69.6443 15.2767 70.1243 14.9433 70.5177 14.51C70.911 14.07 71.2143 13.5367 71.4277 12.91C71.641 12.2767 71.7477 11.5633 71.7477 10.77ZM88.24 15.91C87.7133 16.57 87.0733 17.09 86.32 17.47C85.5667 17.8433 84.6767 18.0667 83.65 18.14L83.52 18.61C84.1467 18.7567 84.5867 18.9533 84.84 19.2C85.0933 19.4533 85.22 19.7533 85.22 20.1C85.22 20.3267 85.16 20.53 85.04 20.71C84.9267 20.89 84.76 21.0433 84.54 21.17C84.3267 21.2967 84.07 21.3933 83.77 21.46C83.47 21.5267 83.14 21.56 82.78 21.56C82.5067 21.56 82.25 21.54 82.01 21.5C81.7767 21.4667 81.5433 21.4133 81.31 21.34L81.54 20.57C81.58 20.4167 81.6767 20.34 81.83 20.34C81.9233 20.34 82.0233 20.3633 82.13 20.41C82.2433 20.4633 82.4067 20.49 82.62 20.49C82.84 20.49 83.0033 20.4467 83.11 20.36C83.2233 20.28 83.28 20.18 83.28 20.06C83.28 19.8667 83.16 19.7267 82.92 19.64C82.68 19.56 82.31 19.4833 81.81 19.41L82.25 18.13C81.29 18.0433 80.4233 17.8033 79.65 17.41C78.8833 17.01 78.23 16.4867 77.69 15.84C77.15 15.1933 76.7367 14.44 76.45 13.58C76.1633 12.72 76.02 11.7833 76.02 10.77C76.02 9.68333 76.1933 8.69 76.54 7.79C76.8867 6.88333 77.3733 6.10333 78 5.45C78.6333 4.79667 79.3867 4.29 80.26 3.93C81.1333 3.56333 82.1 3.38 83.16 3.38C84.2133 3.38 85.1467 3.55333 85.96 3.9C86.78 4.24667 87.4767 4.7 88.05 5.26L87.15 6.51C87.0967 6.59 87.0267 6.66 86.94 6.72C86.86 6.78 86.7467 6.81 86.6 6.81C86.5 6.81 86.3967 6.78333 86.29 6.73C86.1833 6.67 86.0667 6.6 85.94 6.52C85.8133 6.43333 85.6667 6.34 85.5 6.24C85.3333 6.14 85.14 6.05 84.92 5.97C84.7 5.88333 84.4433 5.81333 84.15 5.76C83.8633 5.7 83.53 5.67 83.15 5.67C82.5033 5.67 81.91 5.78667 81.37 6.02C80.8367 6.24667 80.3767 6.58 79.99 7.02C79.6033 7.45333 79.3033 7.98667 79.09 8.62C78.8767 9.24667 78.77 9.96333 78.77 10.77C78.77 11.5833 78.8833 12.3067 79.11 12.94C79.3433 13.5733 79.6567 14.1067 80.05 14.54C80.4433 14.9733 80.9067 15.3067 81.44 15.54C81.9733 15.7667 82.5467 15.88 83.16 15.88C83.5267 15.88 83.8567 15.86 84.15 15.82C84.45 15.78 84.7233 15.7167 84.97 15.63C85.2233 15.5433 85.46 15.4333 85.68 15.3C85.9067 15.16 86.13 14.99 86.35 14.79C86.4167 14.73 86.4867 14.6833 86.56 14.65C86.6333 14.61 86.71 14.59 86.79 14.59C86.9367 14.59 87.0667 14.6467 87.18 14.76L88.24 15.91ZM97.7227 12.54L95.9627 7.73C95.876 7.51667 95.786 7.26333 95.6927 6.97C95.5993 6.67667 95.506 6.36 95.4127 6.02C95.326 6.36 95.236 6.68 95.1427 6.98C95.0493 7.27333 94.9593 7.53 94.8727 7.75L93.1227 12.54H97.7227ZM102.473 18H100.393C100.159 18 99.9693 17.9433 99.8227 17.83C99.676 17.71 99.566 17.5633 99.4927 17.39L98.4127 14.44H92.4227L91.3427 17.39C91.2893 17.5433 91.186 17.6833 91.0327 17.81C90.8793 17.9367 90.6893 18 90.4627 18H88.3627L94.0527 3.54H96.7927L102.473 18ZM96.6627 1.01C96.8093 1.01 96.936 0.979999 97.0427 0.919999C97.156 0.859999 97.246 0.786665 97.3127 0.699999C97.386 0.606666 97.4393 0.506666 97.4727 0.399999C97.506 0.286666 97.5227 0.176666 97.5227 0.069999H99.0327C99.0327 0.403333 98.986 0.723333 98.8927 1.03C98.806 1.33 98.6727 1.6 98.4927 1.84C98.3193 2.07333 98.1027 2.26 97.8427 2.4C97.5893 2.54 97.296 2.61 96.9627 2.61C96.6227 2.61 96.326 2.55667 96.0727 2.45C95.826 2.34333 95.5993 2.23 95.3927 2.11C95.186 1.98333 94.996 1.86667 94.8227 1.76C94.656 1.65333 94.4827 1.6 94.3027 1.6C94.1493 1.6 94.0193 1.63 93.9127 1.69C93.806 1.75 93.7193 1.82667 93.6527 1.92C93.586 2.01333 93.536 2.11667 93.5027 2.23C93.4693 2.34333 93.4527 2.45333 93.4527 2.56H91.9227C91.9227 2.23333 91.9693 1.91667 92.0627 1.61C92.156 1.29667 92.2893 1.02333 92.4627 0.789999C92.6427 0.549999 92.8593 0.359999 93.1127 0.219999C93.3727 0.0733325 93.6693 -7.15256e-07 94.0027 -7.15256e-07C94.3427 -7.15256e-07 94.6393 0.0533327 94.8927 0.16C95.146 0.266666 95.3727 0.383332 95.5727 0.509999C95.7727 0.629999 95.9593 0.743333 96.1327 0.85C96.306 0.956666 96.4827 1.01 96.6627 1.01ZM117.33 10.77C117.33 11.83 117.153 12.8133 116.8 13.72C116.453 14.62 115.96 15.4 115.32 16.06C114.68 16.72 113.91 17.2367 113.01 17.61C112.11 17.9767 111.11 18.16 110.01 18.16C108.916 18.16 107.92 17.9767 107.02 17.61C106.12 17.2367 105.346 16.72 104.7 16.06C104.06 15.4 103.563 14.62 103.21 13.72C102.856 12.8133 102.68 11.83 102.68 10.77C102.68 9.71 102.856 8.73 103.21 7.83C103.563 6.92333 104.06 6.14 104.7 5.48C105.346 4.82 106.12 4.30667 107.02 3.94C107.92 3.56667 108.916 3.38 110.01 3.38C110.743 3.38 111.433 3.46667 112.08 3.64C112.726 3.80667 113.32 4.04667 113.86 4.36C114.4 4.66667 114.883 5.04333 115.31 5.49C115.743 5.93 116.11 6.42333 116.41 6.97C116.71 7.51667 116.936 8.11 117.09 8.75C117.25 9.39 117.33 10.0633 117.33 10.77ZM114.58 10.77C114.58 9.97667 114.473 9.26667 114.26 8.64C114.046 8.00667 113.743 7.47 113.35 7.03C112.956 6.59 112.476 6.25333 111.91 6.02C111.35 5.78667 110.716 5.67 110.01 5.67C109.303 5.67 108.666 5.78667 108.1 6.02C107.54 6.25333 107.06 6.59 106.66 7.03C106.266 7.47 105.963 8.00667 105.75 8.64C105.536 9.26667 105.43 9.97667 105.43 10.77C105.43 11.5633 105.536 12.2767 105.75 12.91C105.963 13.5367 106.266 14.07 106.66 14.51C107.06 14.9433 107.54 15.2767 108.1 15.51C108.666 15.7433 109.303 15.86 110.01 15.86C110.716 15.86 111.35 15.7433 111.91 15.51C112.476 15.2767 112.956 14.9433 113.35 14.51C113.743 14.07 114.046 13.5367 114.26 12.91C114.473 12.2767 114.58 11.5633 114.58 10.77Z" fill="#161616"/>
</svg>
