<svg width="189" height="44" viewBox="0 0 189 44" fill="none" xmlns="http://www.w3.org/2000/svg">
<path d="M161.776 18.2165C161.744 20.7529 164.036 22.1683 165.763 23.0099C167.538 23.8733 168.134 24.427 168.127 25.1992C168.114 26.3808 166.711 26.9024 165.399 26.9227C163.11 26.9581 161.779 26.3046 160.721 25.8104L159.897 29.669C160.958 30.1582 162.924 30.5848 164.962 30.6035C169.747 30.6035 172.878 28.2415 172.895 24.5794C172.914 19.9316 166.466 19.6744 166.51 17.5969C166.525 16.967 167.126 16.2948 168.444 16.1239C169.095 16.0375 170.895 15.9715 172.936 16.9111L173.736 13.1778C172.639 12.7782 171.229 12.3957 169.473 12.3957C164.969 12.3957 161.802 14.7898 161.776 18.2165ZM181.432 12.7172C180.558 12.7172 179.822 13.2269 179.493 14.009L172.658 30.3293H177.439L178.391 27.6997H184.234L184.786 30.3293H189L185.322 12.7172H181.432ZM182.101 17.4749L183.48 24.0884H179.701L182.101 17.4749ZM155.979 12.7175L152.21 30.3291H156.766L160.533 12.717H155.979V12.7175ZM149.238 12.717L144.496 24.7047L142.577 14.5121C142.352 13.3742 141.463 12.7172 140.476 12.7172H132.724L132.615 13.2287C134.207 13.574 136.015 14.131 137.111 14.727C137.781 15.0911 137.972 15.4094 138.192 16.2745L141.826 30.3293H146.641L154.023 12.7172H149.238" fill="url(#paint0_linear_100_2)"/>
<path d="M10.2506 43.6126V40.7117C10.2506 39.5994 9.57357 38.8743 8.41306 38.8743C7.83292 38.8743 7.20432 39.0677 6.7691 39.6963C6.43079 39.1644 5.94733 38.8743 5.22204 38.8743C4.73837 38.8743 4.25513 39.0192 3.86815 39.5512V38.971H2.85278V43.6126H3.86815V41.05C3.86815 40.2282 4.30337 39.8412 4.98042 39.8412C5.65704 39.8412 5.99579 40.2765 5.99579 41.05V43.6126H7.01115V41.05C7.01115 40.2282 7.49439 39.8412 8.12299 39.8412C8.80005 39.8412 9.13835 40.2765 9.13835 41.05V43.6126H10.2506ZM25.2875 38.971H23.6438V37.5689H22.6284V38.971H21.7097V39.8895H22.6282V42.0171C22.6282 43.0809 23.0634 43.7093 24.2239 43.7093C24.6591 43.7093 25.1424 43.5644 25.4811 43.371L25.1908 42.5006C24.9007 42.6939 24.5624 42.7424 24.3206 42.7424C23.8371 42.7424 23.6438 42.4523 23.6438 41.9687V39.8895H25.2875V38.971ZM33.8941 38.8741C33.3139 38.8741 32.9272 39.1644 32.6854 39.5512V38.971H31.67V43.6126H32.6854V41.0017C32.6854 40.2282 33.0237 39.793 33.6523 39.793C33.8456 39.793 34.0875 39.8415 34.2809 39.8897L34.5709 38.9228C34.3776 38.8743 34.0875 38.8743 33.8941 38.8743V38.8741ZM20.8877 39.3578C20.4041 39.0192 19.7272 38.8743 19.0019 38.8743C17.8416 38.8743 17.0681 39.4545 17.0681 40.3731C17.0681 41.1469 17.6483 41.5819 18.6636 41.727L19.1471 41.7755C19.679 41.872 19.9691 42.0171 19.9691 42.2589C19.9691 42.5973 19.5823 42.8391 18.9052 42.8391C18.2284 42.8391 17.6965 42.5973 17.358 42.3556L16.8745 43.1292C17.4064 43.5159 18.1317 43.7093 18.8568 43.7093C20.2107 43.7093 20.9844 43.0809 20.9844 42.2105C20.9844 41.3885 20.3558 40.9533 19.3887 40.8084L18.9052 40.7599C18.47 40.7115 18.1317 40.615 18.1317 40.3249C18.1317 39.9864 18.47 39.793 19.0019 39.793C19.5823 39.793 20.1624 40.0346 20.4525 40.1798L20.8877 39.3578ZM47.8676 38.8743C47.2872 38.8743 46.9005 39.1644 46.6586 39.5512V38.971H45.6433V43.6126H46.6586V41.0017C46.6586 40.2282 46.9972 39.793 47.6255 39.793C47.8191 39.793 48.061 39.8415 48.2544 39.8897L48.5444 38.9228C48.351 38.8743 48.061 38.8743 47.8676 38.8743ZM34.9095 41.2918C34.9095 42.6939 35.8764 43.7093 37.3754 43.7093C38.0522 43.7093 38.5357 43.5644 39.0192 43.1776L38.5357 42.3556C38.1489 42.6457 37.7622 42.7906 37.327 42.7906C36.505 42.7906 35.9248 42.2105 35.9248 41.2918C35.9248 40.4216 36.505 39.8412 37.327 39.793C37.7622 39.793 38.1489 39.9379 38.5357 40.2282L39.0192 39.4062C38.5357 39.0192 38.0522 38.8743 37.3754 38.8743C35.8764 38.8743 34.9095 39.8897 34.9095 41.2918ZM44.2896 41.2918V38.971H43.2742V39.5512C42.9357 39.1162 42.4522 38.8743 41.8236 38.8743C40.5182 38.8743 39.5028 39.8897 39.5028 41.2918C39.5028 42.6939 40.5182 43.7093 41.8236 43.7093C42.5005 43.7093 42.9841 43.4677 43.2742 43.0325V43.6126H44.2896V41.2918ZM40.5664 41.2918C40.5664 40.4698 41.0983 39.793 41.9686 39.793C42.7905 39.793 43.3709 40.4216 43.3709 41.2918C43.3709 42.1138 42.7905 42.7906 41.9686 42.7906C41.0983 42.7422 40.5664 42.1138 40.5664 41.2918ZM28.4305 38.8743C27.0766 38.8743 26.1095 39.8412 26.1095 41.2918C26.1095 42.7424 27.0764 43.7093 28.4787 43.7093C29.1556 43.7093 29.8326 43.5159 30.3645 43.0809L29.8809 42.3556C29.4941 42.6457 29.0107 42.8391 28.5272 42.8391C27.8986 42.8391 27.27 42.549 27.1249 41.7268H30.5579V41.3403C30.6064 39.8412 29.7359 38.8743 28.4303 38.8743H28.4305ZM28.4305 39.7445C29.0589 39.7445 29.4943 40.1315 29.5908 40.8568H27.1733C27.27 40.2282 27.7052 39.7445 28.4305 39.7445ZM53.6213 41.2918V37.1337H52.6059V39.5512C52.2674 39.1162 51.7839 38.8743 51.1553 38.8743C49.8499 38.8743 48.8345 39.8897 48.8345 41.2918C48.8345 42.6939 49.8499 43.7093 51.1553 43.7093C51.8324 43.7093 52.3158 43.4677 52.6059 43.0325V43.6126H53.6213V41.2918ZM49.8983 41.2918C49.8983 40.4698 50.43 39.793 51.3004 39.793C52.1224 39.793 52.7026 40.4216 52.7026 41.2918C52.7026 42.1138 52.1224 42.7906 51.3004 42.7906C50.43 42.7422 49.8983 42.1138 49.8983 41.2918ZM15.9558 41.2918V38.971H14.9405V39.5512C14.6019 39.1162 14.1185 38.8743 13.4899 38.8743C12.1845 38.8743 11.1691 39.8897 11.1691 41.2918C11.1691 42.6939 12.1845 43.7093 13.4899 43.7093C14.1669 43.7093 14.6504 43.4677 14.9405 43.0325V43.6126H15.9558V41.2918ZM12.1844 41.2918C12.1844 40.4698 12.7164 39.793 13.5866 39.793C14.4086 39.793 14.9889 40.4216 14.9889 41.2918C14.9889 42.1138 14.4086 42.7906 13.5866 42.7906C12.7164 42.7422 12.1844 42.1138 12.1844 41.2918Z" fill="black"/>
<path d="M20.5491 3.72287H35.7795V31.0895H20.5491V3.72287Z" fill="#FF5F00"/>
<path d="M21.5163 17.4064C21.5163 11.8461 24.1271 6.91417 28.1401 3.72293C25.191 1.40213 21.468 0 17.4066 0C7.78439 0 0 7.78439 0 17.4064C0 27.0281 7.78439 34.8127 17.4063 34.8127C21.4678 34.8127 25.1907 33.4106 28.1401 31.0896C24.1271 27.9468 21.5163 22.9666 21.5163 17.4064Z" fill="#EB001B"/>
<path d="M56.3289 17.4064C56.3289 27.0281 48.5445 34.8127 38.9225 34.8127C34.8611 34.8127 31.1381 33.4106 28.1887 31.0896C32.2502 27.8985 34.8128 22.9666 34.8128 17.4064C34.8128 11.8461 32.2017 6.91417 28.1887 3.72293C31.1379 1.40213 34.8611 0 38.9225 0C48.5445 0 56.3291 7.83285 56.3291 17.4064H56.3289Z" fill="#F79E1B"/>
<path d="M104.13 7.59946C102.596 5.85044 99.822 5.10059 96.2734 5.10059H85.9744C85.6233 5.1006 85.2837 5.22586 85.0167 5.45385C84.7497 5.68183 84.5727 5.99759 84.5177 6.34435L80.2294 33.5419C80.1442 34.0782 80.5594 34.5639 81.103 34.5639H87.4613L89.0581 24.4355L89.0086 24.7526C89.1223 24.0367 89.7346 23.5086 90.4597 23.5086H93.4811C99.4167 23.5086 104.064 21.0978 105.422 14.1236C105.462 13.9173 105.497 13.7165 105.527 13.5204C105.356 13.4297 105.356 13.4297 105.527 13.5204C105.932 10.9427 105.525 9.18804 104.13 7.59946Z" fill="#27346A"/>
<path d="M91.491 12.5918C91.6648 12.5091 91.855 12.4662 92.0475 12.4663H100.122C101.078 12.4663 101.97 12.5285 102.785 12.6597C103.013 12.696 103.239 12.7394 103.465 12.7898C103.784 12.8603 104.1 12.9466 104.411 13.0483C104.811 13.1821 105.185 13.3379 105.528 13.5204C105.932 10.9417 105.525 9.18804 104.13 7.59946C102.595 5.85044 99.822 5.10059 96.2734 5.10059H85.9735C85.2483 5.10059 84.6314 5.62853 84.5177 6.34435L80.2294 33.5409C80.1442 34.0781 80.5594 34.5631 81.1021 34.5631H87.4613L90.7742 13.5543C90.8068 13.3478 90.889 13.1523 91.0139 12.9847C91.1388 12.817 91.3025 12.6822 91.491 12.5918Z" fill="#27346A"/>
<path d="M105.422 14.1235C104.065 21.0967 99.4171 23.5086 93.4814 23.5086H90.4591C89.734 23.5086 89.1216 24.0367 89.0089 24.7526L87.0224 37.3461C86.9481 37.8154 87.3111 38.2407 87.786 38.2407H93.1458C93.4528 38.2407 93.7498 38.131 93.9832 37.9316C94.2166 37.7321 94.3712 37.456 94.4192 37.1527L94.4714 36.8796L95.4816 30.4773L95.5467 30.1234C95.5947 29.8202 95.7493 29.544 95.9827 29.3446C96.2161 29.1451 96.513 29.0355 96.82 29.0354H97.6221C102.814 29.0354 106.88 26.926 108.068 20.8255C108.564 18.2761 108.307 16.1475 106.995 14.6525C106.597 14.1996 106.103 13.8256 105.528 13.5204C105.496 13.7175 105.463 13.9173 105.422 14.1235Z" fill="#2790C3"/>
<path d="M104.107 12.9539C103.895 12.8921 103.681 12.8374 103.466 12.7899C103.24 12.7403 103.014 12.6972 102.786 12.6606C101.97 12.5285 101.079 12.4662 100.122 12.4662H92.0485C91.8558 12.4658 91.6655 12.509 91.492 12.5927C91.3033 12.6828 91.1393 12.8175 91.0144 12.9853C90.8895 13.153 90.8073 13.3486 90.7751 13.5552L89.0591 24.4355L89.0095 24.7527C89.1224 24.0367 89.7347 23.5087 90.4599 23.5087H93.4822C99.4178 23.5087 104.065 21.0978 105.423 14.1236C105.463 13.9173 105.497 13.7174 105.528 13.5204C105.185 13.3389 104.813 13.1821 104.412 13.0492C104.311 13.0157 104.209 12.9839 104.107 12.9539Z" fill="#1F264F"/>
<defs>
<linearGradient id="paint0_linear_100_2" x1="158.538" y1="30.9688" x2="159.065" y2="12.269" gradientUnits="userSpaceOnUse">
<stop stop-color="#222357"/>
<stop offset="1" stop-color="#254AA5"/>
</linearGradient>
</defs>
</svg>
